<svg width="213" height="80" viewBox="0 0 213 80" fill="none" xmlns="http://www.w3.org/2000/svg">
<path d="M2.18855 13.528C2.50753 13.194 3.08543 13.3202 3.33398 13.6859C3.45958 14.1696 3.34697 14.7509 3.69985 15.1507C4.24115 15.6739 5.04664 15.6425 5.74448 15.661C16.9039 15.6557 28.0629 15.6581 39.222 15.6581C40.0092 15.5822 40.8038 16.2315 40.809 17.0444C40.83 19.067 40.8273 21.0949 40.8064 23.1173C40.7961 23.9249 40.0039 24.5639 39.2194 24.4955C35.9013 24.514 32.5809 24.477 29.2629 24.5085C28.3793 24.5007 27.7257 25.3844 27.8277 26.2364C27.8277 37.8114 27.833 49.3891 27.8247 60.9641C27.9008 61.7665 27.2471 62.5605 26.434 62.5686C23.6416 62.6053 20.8466 62.5764 18.0543 62.5816C17.1654 62.6841 16.3207 61.89 16.4094 60.9826C16.4041 49.3998 16.4094 37.8141 16.4094 26.2286C16.4905 25.4395 15.9465 24.606 15.1311 24.5217C11.8236 24.4218 8.50829 24.614 5.20324 24.3929C3.61882 24.2798 1.93503 23.7037 1.02787 22.307C-0.915082 19.6375 0.136325 15.8135 2.18861 13.5279L2.18855 13.528Z" fill="white"/>
<path fill-rule="evenodd" clip-rule="evenodd" d="M82.159 22.5072C80.1772 21.2474 77.6932 20.8372 75.4213 21.4156V21.4154C73.8919 21.8047 72.4408 22.5121 71.1831 23.4617C70.7152 23.9509 71.1203 24.7478 71.761 24.7608C72.9612 24.9688 73.884 25.9207 74.2629 27.0542C74.9598 29.049 74.9912 31.1937 75.0218 33.2868C75.0233 33.3934 75.0249 33.4998 75.0265 33.606C75.0265 37.4982 75.0261 41.3906 75.0256 45.2831C75.0246 54.9918 75.0235 64.7011 75.0292 74.409C74.9534 75.2795 75.7456 76.074 76.6109 75.9949C77.2391 75.9955 77.8674 75.9966 78.4958 75.9977C80.666 76.0016 82.8371 76.0055 85.0066 75.9871C85.8353 76.0082 86.5282 75.2032 86.4444 74.3855C86.447 72.2616 86.4461 70.1383 86.4452 68.0153C86.4442 65.5796 86.4431 63.1443 86.4474 60.709C86.361 60.1935 86.7923 59.6544 87.331 59.7831C87.6676 59.9458 87.9545 60.1845 88.2425 60.424C88.4623 60.6069 88.6826 60.7902 88.926 60.9405C91.3469 62.592 94.4715 62.913 97.2824 62.2792C101.304 61.4349 104.914 58.8364 107.006 55.2806C109.367 51.3275 109.976 46.5802 109.783 42.0459C109.589 37.6747 108.352 33.1851 105.474 29.816C102.684 26.5312 98.4588 24.3668 94.1263 24.443C91.4778 24.4796 88.9756 25.7738 87.2081 27.7249C86.8365 28.2589 85.9662 27.9749 85.924 27.3439C85.5269 25.2214 83.9056 23.6198 82.159 22.5072ZM86.9541 35.3471C87.7623 34.248 89.0616 33.6561 90.3376 33.2956C94.0006 32.2989 97.8705 34.887 99.1097 38.3479C100.289 41.6383 100.399 45.473 98.8874 48.6767C97.3056 51.9142 93.6035 54.431 89.9352 53.5631C88.3428 53.2976 86.4706 52.2851 86.4627 50.4361C86.437 48.0155 86.4409 45.5932 86.4448 43.1706C86.4477 41.3894 86.4506 39.6081 86.4417 37.8272L86.4417 37.8169C86.439 36.9755 86.4361 36.0571 86.9541 35.3471Z" fill="white"/>
<path fill-rule="evenodd" clip-rule="evenodd" d="M58.79 24.9637C57.8253 25.0114 57.4355 26.0187 57.3624 26.847V26.8471C55.9585 26.471 54.51 26.2817 53.0614 26.2159C49.997 26.079 46.8438 26.2106 43.952 27.3311C40.9872 28.4331 38.4694 30.6344 36.9188 33.3986C34.7276 37.2725 34.0949 41.8385 34.1733 46.2387C34.4741 50.8177 35.9907 55.5359 39.2615 58.8551C42.2629 61.9243 46.9038 63.0236 51.0271 62.1191C53.315 61.6114 55.1426 59.9385 56.4449 58.0526C56.5002 57.9826 56.5539 57.9042 56.6087 57.8241C56.8336 57.4957 57.0772 57.1398 57.5269 57.2243C57.9247 57.277 58.0618 57.6349 58.1926 57.9762C58.2381 58.0951 58.2829 58.212 58.3377 58.3133C59.1795 60.4569 60.9809 62.2978 63.2634 62.8055C66.0325 63.45 68.8587 62.4582 71.3061 61.1958C71.4017 61.1361 71.5098 61.0814 71.6202 61.0255C71.996 60.8354 72.3988 60.6316 72.425 60.17C72.4608 59.6253 72.0131 59.4369 71.5748 59.2524C71.3741 59.168 71.1755 59.0844 71.0261 58.9679C69.2981 57.8241 68.8614 55.5754 68.7883 53.637C68.7987 44.5946 68.7987 35.5525 68.7907 26.5102C68.8562 25.6423 68.0586 24.8636 67.2012 24.9479C66.2701 24.9496 65.3386 24.9473 64.4071 24.9449C62.5345 24.9403 60.6616 24.9356 58.79 24.9637ZM45.3532 36.6334C46.7652 34.2534 49.3249 32.6492 52.0624 32.3704L52.0621 32.3704C53.4638 32.2177 54.9096 32.147 56.2847 32.5202C57.0065 32.6781 57.4301 33.4409 57.3726 34.151C57.3789 36.5119 57.3773 38.8733 57.3757 41.235C57.3739 43.7802 57.3722 46.3258 57.3803 48.8714C57.6 51.0673 55.8822 52.9875 53.9057 53.6476C52.1066 54.2421 50.036 54.6445 48.2659 53.737C46.0434 52.6324 44.7571 50.2865 44.0878 47.9746C43.055 44.2346 43.3321 40.0001 45.3532 36.6334Z" fill="white"/>
<path d="M101.842 13.528C102.161 13.194 102.739 13.3202 102.987 13.6859C103.113 14.1696 103 14.7509 103.353 15.1507C103.894 15.6739 104.7 15.6425 105.398 15.661C116.557 15.6557 127.716 15.6581 138.875 15.6581C139.663 15.5822 140.457 16.2315 140.462 17.0444C140.483 19.067 140.481 21.0949 140.46 23.1173C140.449 23.9249 139.657 24.5639 138.873 24.4955C135.555 24.514 132.234 24.477 128.916 24.5085C128.033 24.5007 127.379 25.3844 127.481 26.2364C127.481 37.8114 127.486 49.3891 127.478 60.9641C127.554 61.7665 126.9 62.5605 126.087 62.5686C123.295 62.6053 120.5 62.5764 117.708 62.5816C116.819 62.6841 115.974 61.89 116.063 60.9826C116.057 49.3998 116.063 37.8141 116.063 26.2286C116.144 25.4395 115.6 24.606 114.784 24.5217C111.477 24.4218 108.162 24.614 104.857 24.3929C103.272 24.2798 101.588 23.7037 100.681 22.307C98.7382 19.6375 99.7896 15.8135 101.842 13.5279L101.842 13.528Z" fill="white"/>
<path fill-rule="evenodd" clip-rule="evenodd" d="M181.812 22.5072C179.83 21.2474 177.347 20.8372 175.075 21.4156V21.4154C173.545 21.8047 172.094 22.5121 170.836 23.4617C170.369 23.9509 170.774 24.7478 171.414 24.7608C172.615 24.9688 173.537 25.9207 173.916 27.0542C174.613 29.049 174.644 31.1937 174.675 33.2868C174.677 33.3934 174.678 33.4998 174.68 33.606C174.68 37.498 174.679 41.3902 174.679 45.2825C174.678 54.9914 174.677 64.7009 174.682 74.409C174.607 75.2795 175.399 76.074 176.264 75.9949C176.892 75.9955 177.521 75.9966 178.149 75.9977C180.319 76.0016 182.49 76.0055 184.66 75.9871C185.489 76.0082 186.181 75.2032 186.098 74.3855C186.1 72.2616 186.099 70.1382 186.099 68.0151C186.097 65.5795 186.096 63.1442 186.101 60.709C186.014 60.1935 186.446 59.6544 186.984 59.7831C187.321 59.9458 187.608 60.1845 187.896 60.424C188.116 60.6069 188.336 60.7902 188.579 60.9405C191 62.592 194.125 62.913 196.936 62.2792C200.957 61.4349 204.567 58.8364 206.659 55.2806C209.02 51.3275 209.629 46.5802 209.436 42.0459C209.243 37.6747 208.006 33.1851 205.127 29.816C202.337 26.5312 198.112 24.3668 193.78 24.443C191.131 24.4796 188.629 25.7738 186.861 27.7249C186.49 28.2589 185.62 27.9749 185.577 27.3439C185.18 25.2214 183.559 23.6198 181.812 22.5072ZM186.607 35.3471C187.416 34.248 188.715 33.6561 189.991 33.2956C193.654 32.2989 197.524 34.887 198.763 38.3479C199.942 41.6383 200.052 45.473 198.541 48.6767C196.959 51.9142 193.257 54.431 189.588 53.5631C187.996 53.2976 186.124 52.2851 186.116 50.4361C186.09 48.0155 186.094 45.5931 186.098 43.1704C186.101 41.3893 186.104 39.608 186.095 37.8272L186.095 37.8169C186.092 36.9755 186.089 36.0571 186.607 35.3471Z" fill="white"/>
<path fill-rule="evenodd" clip-rule="evenodd" d="M158.443 24.9637C157.479 25.0114 157.089 26.0187 157.016 26.847V26.8471C155.612 26.471 154.163 26.2817 152.715 26.2159C149.65 26.079 146.497 26.2106 143.605 27.3311C140.641 28.4331 138.123 30.6344 136.572 33.3986C134.381 37.2725 133.748 41.8385 133.827 46.2387C134.127 50.8177 135.644 55.5359 138.915 58.8551C141.916 61.9243 146.557 63.0236 150.68 62.1191C152.968 61.6114 154.796 59.9385 156.098 58.0526C156.154 57.9826 156.207 57.9042 156.262 57.8241C156.487 57.4957 156.731 57.1398 157.18 57.2243C157.578 57.277 157.715 57.6349 157.846 57.9762C157.891 58.0951 157.936 58.212 157.991 58.3133C158.833 60.4569 160.634 62.2978 162.917 62.8055C165.686 63.45 168.512 62.4582 170.959 61.1958C171.055 61.1361 171.163 61.0814 171.274 61.0255C171.649 60.8354 172.052 60.6316 172.078 60.17C172.114 59.6253 171.666 59.4369 171.228 59.2524C171.027 59.168 170.829 59.0844 170.679 58.9679C168.951 57.8241 168.515 55.5754 168.442 53.637C168.452 44.5946 168.452 35.5525 168.444 26.5102C168.509 25.6423 167.712 24.8636 166.855 24.9479C165.923 24.9496 164.992 24.9473 164.06 24.9449C162.188 24.9403 160.315 24.9356 158.443 24.9637ZM145.007 36.6334C146.419 34.2534 148.978 32.6492 151.716 32.3704L151.715 32.3704C153.117 32.2177 154.563 32.147 155.938 32.5202C156.66 32.6781 157.083 33.4409 157.026 34.151C157.032 36.5119 157.031 38.8733 157.029 41.235C157.027 43.7802 157.026 46.3258 157.034 48.8714C157.253 51.0673 155.536 52.9875 153.559 53.6476C151.76 54.2421 149.689 54.6445 147.919 53.737C145.697 52.6324 144.41 50.2865 143.741 47.9746C142.708 44.2346 142.985 40.0001 145.007 36.6334Z" fill="white"/>
</svg>
